<?xml version="1.0" encoding="utf-8"?>
<!-- Generator: Adobe Illustrator 16.1.0, SVG Export Plug-In . SVG Version: 6.00 Build 0)  -->
<!DOCTYPE svg PUBLIC "-//W3C//DTD SVG 1.1//EN" "http://www.w3.org/Graphics/SVG/1.1/DTD/svg11.dtd">
<svg version="1.1" id="Layer_1" xmlns="http://www.w3.org/2000/svg" xmlns:xlink="http://www.w3.org/1999/xlink" x="0px" y="0px"
	 width="215px" height="54.5px" viewBox="0 0 215 54.5" enable-background="new 0 0 215 54.5" xml:space="preserve">
<g>
	<g>
		<path d="M84.197,35.502l-1.555-3.815h-7.195l-1.555,3.815h-3.815l7.29-17.135h3.452l7.291,17.135H84.197z M79.045,22.863
			l-2.262,5.518h4.521L79.045,22.863z"/>
		<path d="M99.063,35.502h-6.635V18.49h6.635c5.347,0,9.041,3.669,9.041,8.456v0.05C108.104,31.784,104.41,35.502,99.063,35.502z
			 M104.191,26.996c0-3.013-2.067-5.128-5.128-5.128H96.17v10.255h2.893c3.061,0,5.128-2.065,5.128-5.078V26.996z"/>
		<path d="M120.045,35.502h-6.634V18.49h6.634c5.348,0,9.041,3.669,9.041,8.456v0.05C129.086,31.784,125.393,35.502,120.045,35.502z
			 M125.174,26.996c0-3.013-2.064-5.128-5.129-5.128h-2.893v10.255h2.893c3.064,0,5.129-2.065,5.129-5.078V26.996z"/>
		<path d="M134.562,35.502V18.49h12.834v3.328h-9.115v3.452h8.021V28.6h-8.021v3.572h9.236v3.33H134.562z"/>
		<path d="M160.379,30.398h-2.844v5.104h-3.742V18.49h6.951c4.057,0,6.512,2.405,6.512,5.881v0.049
			C167.256,28.356,164.193,30.398,160.379,30.398z M163.465,24.444c0-1.677-1.168-2.576-3.037-2.576h-2.893v5.2h2.965
			c1.871,0,2.965-1.118,2.965-2.577V24.444z"/>
		<path d="M183.477,35.502l-1.557-3.815h-7.193l-1.557,3.815h-3.816l7.293-17.135h3.451l7.291,17.135H183.477z M178.322,22.863
			l-2.26,5.518h4.521L178.322,22.863z"/>
		<path d="M202.262,35.502l-3.645-5.444h-2.941v5.444h-3.742V18.49h7.777c4.012,0,6.418,2.113,6.418,5.613v0.049
			c0,2.746-1.484,4.472-3.646,5.273l4.156,6.076H202.262z M202.336,24.298c0-1.604-1.117-2.43-2.941-2.43h-3.719v4.884h3.791
			c1.824,0,2.869-0.971,2.869-2.406V24.298z"/>
	</g>
	<g>
		<polygon fill="#939598" points="25.07,45.727 8.362,45.727 31.817,8.773 48.526,8.773 		"/>
		<polygon points="47.01,45.727 63.718,45.727 52.793,28.376 36.085,28.376 		"/>
	</g>
</g>
</svg>
