<?xml version="1.0" encoding="utf-8"?>
<!-- Generator: Adobe Illustrator 17.0.0, SVG Export Plug-In . SVG Version: 6.00 Build 0)  -->
<!DOCTYPE svg PUBLIC "-//W3C//DTD SVG 1.1//EN" "http://www.w3.org/Graphics/SVG/1.1/DTD/svg11.dtd">
<svg version="1.1" id="Layer_1" xmlns="http://www.w3.org/2000/svg" xmlns:xlink="http://www.w3.org/1999/xlink" x="0px" y="0px"
	 width="24px" height="24px" viewBox="0 0 24 24" enable-background="new 0 0 24 24" xml:space="preserve">
<path fill="#FFFFFF" d="M21.687,3.898c0-0.003,0-0.006,0-0.009c0-0.005-0.001-0.009-0.001-0.014c0-0.008-0.001-0.016-0.001-0.023
	c-0.001-0.007-0.001-0.015-0.002-0.022c-0.001-0.008-0.002-0.015-0.003-0.023c-0.001-0.007-0.002-0.015-0.004-0.022
	c-0.001-0.008-0.003-0.015-0.005-0.023c-0.001-0.007-0.003-0.014-0.005-0.021c-0.002-0.007-0.004-0.015-0.006-0.022
	c-0.002-0.007-0.004-0.014-0.006-0.021c-0.002-0.007-0.005-0.014-0.007-0.022c-0.002-0.007-0.005-0.014-0.008-0.02
	c-0.003-0.007-0.006-0.014-0.009-0.021c-0.003-0.006-0.006-0.013-0.009-0.02c-0.003-0.007-0.007-0.014-0.011-0.021
	c-0.003-0.006-0.006-0.012-0.01-0.019c-0.004-0.007-0.008-0.014-0.012-0.02c-0.004-0.006-0.007-0.012-0.011-0.018
	c-0.004-0.007-0.009-0.013-0.013-0.02c-0.004-0.006-0.008-0.011-0.012-0.017c-0.005-0.006-0.01-0.013-0.015-0.019
	c-0.004-0.006-0.009-0.011-0.013-0.016c-0.005-0.006-0.011-0.012-0.016-0.018c-0.005-0.005-0.009-0.01-0.014-0.015
	c-0.006-0.006-0.012-0.011-0.017-0.017c-0.005-0.005-0.01-0.01-0.015-0.014c-0.006-0.005-0.012-0.011-0.018-0.016
	c-0.006-0.005-0.011-0.009-0.016-0.013c-0.006-0.005-0.013-0.01-0.019-0.014c-0.006-0.004-0.012-0.008-0.017-0.012
	c-0.007-0.005-0.014-0.009-0.02-0.013c-0.006-0.004-0.012-0.008-0.018-0.011c-0.001-0.001-0.002-0.001-0.004-0.002
	c-0.006-0.004-0.013-0.007-0.019-0.01c-0.005-0.003-0.01-0.006-0.015-0.008l-6.37-3.227C14.741-0.03,14.499-0.024,14.3,0.09
	l-2.637,1.507c-0.003,0.002-0.006,0.004-0.009,0.006c-0.003,0.002-0.006,0.004-0.01,0.006c-0.004,0.002-0.007,0.005-0.011,0.007
	c-0.006,0.004-0.012,0.008-0.018,0.012c-0.006,0.004-0.013,0.009-0.019,0.014c-0.006,0.004-0.012,0.009-0.017,0.013
	c-0.006,0.005-0.012,0.01-0.018,0.015c-0.006,0.005-0.011,0.009-0.016,0.014c-0.006,0.005-0.012,0.011-0.017,0.016
	c-0.005,0.005-0.01,0.01-0.015,0.015c-0.006,0.006-0.011,0.012-0.016,0.018c-0.005,0.005-0.009,0.01-0.013,0.015
	c-0.005,0.006-0.01,0.013-0.015,0.019c-0.004,0.005-0.008,0.01-0.012,0.015c-0.005,0.006-0.01,0.013-0.015,0.02
	c-0.004,0.005-0.007,0.01-0.011,0.015c-0.005,0.008-0.01,0.016-0.014,0.024c-0.003,0.005-0.006,0.009-0.008,0.014
	c-0.006,0.012-0.012,0.023-0.018,0.035c-0.002,0.004-0.004,0.008-0.006,0.012c-0.005,0.011-0.01,0.021-0.014,0.032
	c-0.002,0.006-0.004,0.012-0.006,0.017c-0.003,0.008-0.006,0.016-0.009,0.024c-0.002,0.006-0.004,0.013-0.006,0.02
	c-0.002,0.008-0.005,0.015-0.006,0.023c-0.002,0.007-0.003,0.014-0.005,0.021c-0.002,0.007-0.003,0.015-0.005,0.022
	c-0.001,0.007-0.002,0.015-0.004,0.022c-0.001,0.007-0.002,0.015-0.003,0.022c-0.001,0.007-0.001,0.015-0.002,0.022
	c-0.001,0.007-0.001,0.015-0.002,0.022c0,0.007,0,0.015-0.001,0.023c0,0.005,0,0.01,0,0.015V3.91L5.936,1.182
	C5.733,1.079,5.491,1.085,5.292,1.198L2.655,2.705C2.652,2.707,2.649,2.709,2.646,2.71C2.643,2.712,2.64,2.714,2.637,2.716
	C2.633,2.719,2.629,2.721,2.626,2.723C2.62,2.727,2.614,2.731,2.608,2.735C2.601,2.74,2.595,2.744,2.589,2.749
	C2.583,2.753,2.577,2.757,2.572,2.762C2.565,2.767,2.56,2.772,2.554,2.777C2.548,2.781,2.543,2.786,2.537,2.791
	C2.531,2.796,2.526,2.801,2.52,2.806c-0.005,0.005-0.01,0.01-0.015,0.015C2.5,2.827,2.495,2.833,2.49,2.839
	c-0.005,0.005-0.01,0.01-0.014,0.016C2.47,2.86,2.466,2.866,2.461,2.872C2.456,2.878,2.452,2.883,2.448,2.889
	C2.443,2.895,2.439,2.902,2.434,2.908C2.43,2.914,2.426,2.919,2.423,2.925C2.418,2.932,2.414,2.939,2.409,2.946
	C2.406,2.952,2.403,2.957,2.4,2.962c-0.006,0.01-0.011,0.02-0.016,0.03c-0.003,0.006-0.006,0.013-0.009,0.02
	c-0.004,0.01-0.009,0.019-0.013,0.029C2.36,3.047,2.358,3.053,2.356,3.059C2.353,3.067,2.35,3.074,2.347,3.082
	c-0.002,0.006-0.004,0.013-0.006,0.02C2.339,3.11,2.337,3.117,2.335,3.125C2.333,3.132,2.332,3.139,2.33,3.146
	C2.328,3.153,2.326,3.161,2.325,3.169C2.324,3.176,2.323,3.183,2.322,3.19C2.32,3.198,2.319,3.205,2.318,3.213
	C2.317,3.22,2.317,3.227,2.316,3.235C2.315,3.242,2.315,3.25,2.314,3.258c0,0.007,0,0.015-0.001,0.022c0,0.005,0,0.01,0,0.015
	v15.654c0,0.256,0.144,0.49,0.372,0.606l6.37,3.228c0.097,0.049,0.202,0.073,0.307,0.073c0.124,0,0.247-0.034,0.355-0.101
	c0.001-0.001,0.003-0.002,0.004-0.003l0.794-0.454l3.213,1.628C13.826,23.976,13.932,24,14.037,24c0.124,0,0.247-0.034,0.356-0.1
	c0.002-0.001,0.003-0.002,0.005-0.003l2.614-1.496c0.212-0.121,0.342-0.346,0.342-0.59v-6.366l0.71,0.36
	c0.097,0.049,0.202,0.073,0.307,0.073c0.124,0,0.247-0.034,0.355-0.1c0.002-0.001,0.003-0.002,0.005-0.003l2.614-1.495
	c0.211-0.121,0.342-0.346,0.342-0.59V3.906C21.687,3.904,21.687,3.901,21.687,3.898z M14.657,1.45l4.919,2.492l-1.225,0.7
	L13.431,2.15L14.657,1.45z M8.683,21.071l-5.012-2.54V4.4l5.012,2.54V21.071z M9.343,5.751L4.424,3.259l1.225-0.7l4.919,2.492
	L9.343,5.751z M11.321,20.273l-1.279,0.732V6.916l1.279-0.731v4.334V20.273z M13.357,22.215l-1.43-0.725l0.409-0.234
	c0.211-0.121,0.342-0.346,0.342-0.59v-5.854l0.678,0.344V22.215z M14.017,13.968l-1.338-0.678v-1.321l2.563,1.298L14.017,13.968z
	 M15.995,21.417l-1.279,0.732v-7.016l1.279-0.731V21.417z M17.353,13.223c0-0.003,0-0.006,0-0.009c0-0.005-0.001-0.01-0.001-0.015
	c0-0.007-0.001-0.015-0.001-0.022c-0.001-0.008-0.001-0.016-0.002-0.024c-0.001-0.007-0.002-0.014-0.003-0.022
	c-0.001-0.008-0.002-0.016-0.004-0.023c-0.001-0.007-0.003-0.014-0.004-0.021c-0.002-0.008-0.003-0.015-0.005-0.023
	c-0.002-0.007-0.004-0.014-0.006-0.021c-0.002-0.007-0.004-0.015-0.007-0.022c-0.002-0.007-0.005-0.014-0.007-0.02
	c-0.003-0.007-0.005-0.014-0.008-0.021c-0.003-0.007-0.006-0.014-0.008-0.02c-0.003-0.007-0.006-0.014-0.009-0.02
	c-0.003-0.007-0.007-0.013-0.01-0.02c-0.003-0.006-0.007-0.013-0.01-0.019c-0.004-0.007-0.008-0.013-0.012-0.02
	c-0.004-0.006-0.007-0.012-0.011-0.018c-0.004-0.007-0.009-0.013-0.013-0.02c-0.004-0.006-0.008-0.011-0.012-0.017
	c-0.005-0.006-0.01-0.013-0.015-0.019c-0.004-0.005-0.008-0.011-0.013-0.016c-0.005-0.006-0.011-0.012-0.017-0.018
	c-0.005-0.005-0.009-0.01-0.014-0.015c-0.006-0.006-0.012-0.012-0.018-0.018c-0.005-0.005-0.01-0.009-0.014-0.014
	c-0.006-0.006-0.012-0.011-0.019-0.016c-0.005-0.004-0.01-0.009-0.016-0.013c-0.006-0.005-0.013-0.01-0.02-0.015
	c-0.006-0.004-0.011-0.008-0.017-0.012c-0.007-0.005-0.014-0.009-0.021-0.013c-0.006-0.004-0.012-0.008-0.018-0.011
	c-0.001-0.001-0.002-0.001-0.003-0.002c-0.006-0.004-0.013-0.007-0.019-0.01c-0.005-0.003-0.01-0.006-0.015-0.008l-4.302-2.179
	V5.015V3.292l5.012,2.54v8.262l-0.338-0.171v-0.691C17.353,13.229,17.353,13.226,17.353,13.223z M20.328,13.296l-1.279,0.732v-8.22
	l1.279-0.731V13.296z"/>
</svg>
